<?xml version="1.0" encoding="utf-8"?>
<!DOCTYPE svg PUBLIC "-//W3C//DTD SVG 1.1//EN" "http://www.w3.org/Graphics/SVG/1.1/DTD/svg11.dtd">
<svg version="1.1" id="Layer_1" xmlns="http://www.w3.org/2000/svg" xmlns:xlink="http://www.w3.org/1999/xlink" x="0px" y="0px"
	 viewBox="0 0 72 72" enable-background="new 0 0 72 72" xml:space="preserve">
<g class="logo-square">
	<path fill="#FFFFFF" d="M27.204,41.538c-0.458,0.314-1.275,0.471-2.452,0.471c-0.994,0-2.034-0.229-3.119-0.687
		c-1.086-0.457-2.113-1.053-3.08-1.785l-3.845,4.63c1.438,1.256,3.027,2.178,4.767,2.766c1.739,0.589,3.445,0.883,5.12,0.883
		c1.647,0,3.105-0.223,4.375-0.667c1.268-0.444,2.334-1.04,3.197-1.785c0.863-0.745,1.517-1.615,1.962-2.609
		c0.444-0.993,0.667-2.027,0.667-3.1c0-1.778-0.465-3.229-1.393-4.354c-0.929-1.125-2.256-2.001-3.982-2.629l-2.942-1.216
		c-1.282-0.471-2.27-0.863-2.962-1.177c-0.693-0.315-1.039-0.772-1.039-1.374c0-1.15,0.967-1.726,2.903-1.726
		c1.02,0,1.935,0.157,2.746,0.471c0.81,0.314,1.673,0.772,2.589,1.373l3.374-4.237c-1.256-1.177-2.642-2.04-4.159-2.589
		c-1.517-0.549-3.035-0.824-4.551-0.824c-1.465,0-2.792,0.21-3.982,0.628c-1.19,0.419-2.21,0.987-3.06,1.707
		c-0.85,0.72-1.51,1.556-1.981,2.511c-0.471,0.955-0.706,1.981-0.706,3.08c0,0.916,0.144,1.753,0.431,2.511
		c0.288,0.759,0.673,1.432,1.158,2.021c0.483,0.589,1.052,1.098,1.706,1.53c0.654,0.431,1.347,0.778,2.079,1.04l3.178,1.334
		c0.601,0.21,1.131,0.4,1.589,0.569c0.457,0.17,0.844,0.347,1.158,0.529c0.314,0.183,0.549,0.379,0.706,0.588
		c0.157,0.21,0.235,0.471,0.235,0.785C27.89,40.78,27.661,41.225,27.204,41.538z"/>
	<path fill="#FFFFFF" d="M0,0v72h72V0H0z M65.388,6.612v58.777H6.612V6.612H65.388z"/>
	<polygon fill="#FFFFFF" points="58.6,21.843 56.137,21.843 37.267,21.843 37.267,27.493 44.604,27.493 44.604,47.344 
		51.351,47.344 51.351,27.493 58.6,27.493 	"/>
</g>
</svg>
