<?xml version="1.0" encoding="utf-8"?>
<!-- Generator: Adobe Illustrator 17.0.2, SVG Export Plug-In . SVG Version: 6.00 Build 0)  -->
<!DOCTYPE svg PUBLIC "-//W3C//DTD SVG 1.1//EN" "http://www.w3.org/Graphics/SVG/1.1/DTD/svg11.dtd">
<svg version="1.1" id="Layer_1" xmlns="http://www.w3.org/2000/svg" xmlns:xlink="http://www.w3.org/1999/xlink" x="0px" y="0px"
	 width="260px" height="72px" viewBox="0 0 260 72" enable-background="new 0 0 260 72" xml:space="preserve">
<g>
	<path fill="#3C4D56" d="M43.27,41.538c-0.458,0.314-1.275,0.471-2.452,0.471c-0.994,0-2.034-0.229-3.119-0.687
		c-1.086-0.457-2.113-1.053-3.08-1.785l-3.845,4.63c1.438,1.256,3.027,2.178,4.767,2.766c1.739,0.589,3.445,0.883,5.12,0.883
		c1.647,0,3.105-0.223,4.375-0.667c1.268-0.444,2.334-1.04,3.197-1.785c0.863-0.745,1.517-1.615,1.962-2.609
		c0.444-0.993,0.667-2.027,0.667-3.1c0-1.778-0.465-3.229-1.393-4.354c-0.929-1.125-2.256-2.001-3.982-2.629l-2.942-1.216
		c-1.282-0.471-2.27-0.863-2.962-1.177c-0.693-0.315-1.039-0.772-1.039-1.374c0-1.15,0.967-1.726,2.903-1.726
		c1.02,0,1.935,0.157,2.746,0.471c0.81,0.314,1.673,0.772,2.589,1.373l3.374-4.237c-1.256-1.177-2.642-2.04-4.159-2.589
		c-1.517-0.549-3.035-0.824-4.551-0.824c-1.465,0-2.792,0.21-3.982,0.628c-1.19,0.419-2.21,0.987-3.06,1.707
		c-0.85,0.72-1.51,1.556-1.981,2.511c-0.471,0.955-0.706,1.981-0.706,3.08c0,0.916,0.144,1.753,0.431,2.511
		c0.288,0.759,0.673,1.432,1.158,2.021c0.483,0.589,1.052,1.098,1.706,1.53c0.654,0.431,1.347,0.778,2.079,1.04l3.178,1.334
		c0.601,0.21,1.131,0.4,1.589,0.569c0.457,0.17,0.844,0.347,1.158,0.529c0.314,0.183,0.549,0.379,0.706,0.588
		c0.157,0.21,0.235,0.471,0.235,0.785C43.957,40.78,43.727,41.224,43.27,41.538z"/>
	<path fill="#3C4D56" d="M61.023,39.262h3.139c1.334,0,2.615-0.176,3.845-0.529c1.229-0.353,2.315-0.889,3.256-1.609
		c0.941-0.719,1.693-1.641,2.256-2.766c0.562-1.124,0.843-2.471,0.843-4.04c0-1.595-0.275-2.937-0.824-4.022
		c-0.549-1.085-1.288-1.961-2.217-2.628c-0.929-0.667-2.014-1.139-3.256-1.413c-1.243-0.275-2.544-0.411-3.904-0.411h-9.887v25.501
		h6.748V39.262z M61.023,27.179h2.825c1.255,0,2.223,0.235,2.903,0.706c0.68,0.471,1.02,1.282,1.02,2.433
		c0,1.151-0.321,2.04-0.961,2.667c-0.641,0.628-1.628,0.941-2.962,0.941h-2.825V27.179z"/>
	<path fill="#3C4D56" d="M80.678,47.344l1.255-5.414h6.984l1.256,5.414h7.14l-7.69-25.501h-8.16l-7.69,25.501H80.678z
		 M83.542,34.946c0.287-1.229,0.582-2.556,0.883-3.982c0.301-1.425,0.595-2.791,0.883-4.1h0.157c0.314,1.282,0.628,2.642,0.941,4.08
		c0.314,1.438,0.614,2.772,0.903,4.001l0.392,1.766H83.15L83.542,34.946z"/>
	<path fill="#3C4D56" d="M107.121,38.791h2.432l4.394,8.553h7.533l-5.532-9.887c1.256-0.68,2.256-1.621,3.002-2.825
		c0.745-1.202,1.118-2.719,1.118-4.551c0-1.594-0.275-2.923-0.824-3.982c-0.55-1.059-1.289-1.903-2.217-2.531
		c-0.929-0.628-2.015-1.072-3.257-1.334c-1.242-0.261-2.544-0.392-3.903-0.392h-9.494v25.501h6.748V38.791z M107.121,27.179h2.276
		c1.334,0,2.347,0.21,3.04,0.628c0.693,0.419,1.039,1.177,1.039,2.275c0,2.25-1.36,3.374-4.08,3.374h-2.276V27.179z"/>
	<polygon fill="#3C4D56" points="141.881,41.695 130.975,41.695 130.975,37.144 139.92,37.144 139.92,31.494 130.975,31.494 
		130.975,27.493 141.489,27.493 141.489,21.843 124.226,21.843 124.226,47.344 141.881,47.344 	"/>
	<path fill="#3C4D56" d="M151.923,47.344h6.748V27.493h7.461l5.407,11.417v8.435h6.748v-8.435l8.082-17.066h-7.062l-2.118,5.571
		c-0.367,0.994-0.726,1.956-1.079,2.883c-0.353,0.929-0.712,1.903-1.079,2.923h-0.157c-0.366-1.02-0.72-1.994-1.059-2.923
		c-0.34-0.928-0.68-1.889-1.02-2.883l-2.118-5.571h-4.668h-2.552h-18.87v5.649h7.337V47.344z"/>
	<path fill="#3C4D56" d="M194.724,39.262h3.139c1.334,0,2.614-0.176,3.844-0.529c1.23-0.353,2.315-0.889,3.257-1.609
		c0.941-0.719,1.693-1.641,2.256-2.766c0.562-1.124,0.844-2.471,0.844-4.04c0-1.595-0.275-2.937-0.825-4.022
		c-0.549-1.085-1.288-1.961-2.217-2.628c-0.929-0.667-2.014-1.139-3.256-1.413c-1.242-0.275-2.544-0.411-3.903-0.411h-9.887v25.501
		h6.748V39.262z M194.724,27.179h2.824c1.256,0,2.223,0.235,2.904,0.706c0.68,0.471,1.02,1.282,1.02,2.433
		c0,1.151-0.32,2.04-0.961,2.667c-0.641,0.628-1.628,0.941-2.963,0.941h-2.824V27.179z"/>
	<polygon fill="#3C4D56" points="228.503,41.695 217.596,41.695 217.596,37.144 226.542,37.144 226.542,31.494 217.596,31.494 
		217.596,27.493 228.111,27.493 228.111,21.843 210.849,21.843 210.849,47.344 228.503,47.344 	"/>
	<path fill="#3C4D56" d="M0,0v72h260V0H0z M253.358,65.388H6.642V6.612h246.716V65.388z"/>
</g>
</svg>
